<?xml version="1.0" encoding="UTF-8"?>
<svg width="1716px" height="570px" viewBox="0 0 1716 570" version="1.1" xmlns="http://www.w3.org/2000/svg" xmlns:xlink="http://www.w3.org/1999/xlink">
    <!-- Generator: Sketch 53.2 (72643) - https://sketchapp.com -->
    <title>Group 20 Copy 2</title>
    <desc>Created with Sketch.</desc>
    <g id="Page-1" stroke="none" stroke-width="1" fill="none" fill-rule="evenodd">
        <g id="Group-18" transform="translate(-559.000000, -2956.000000)" fill="#133E9C" fill-rule="nonzero">
            <g id="Group-13" transform="translate(0.000000, 1436.000000)">
                <g id="Group-20-Copy-2" transform="translate(559.000000, 1520.000000)">
                    <g id="Group-22" transform="translate(-0.000000, -0.000000)">
                        <path d="M1665.7044,223.419355 L1592.67742,223.419355 L1592.67742,173.709677 L1665.7044,173.709677 L1715.83871,173.709677 L1715.83871,319.204271 C1715.83871,373.208814 1684.10814,399.258065 1637.14689,399.258065 C1602.56056,399.258065 1579.71455,384.009723 1564.48387,365.902317 L1595.26253,331.593548 C1607.95476,345.571195 1620.32968,353.830713 1635.87766,353.830713 C1654.2814,353.830713 1665.7044,342.712131 1665.7044,316.980554 L1665.7044,223.419355 Z M841.83871,330.385842 C841.83871,374.502151 808.19448,399.258065 760.267323,399.258065 C726.623093,399.258065 692.661465,387.514875 666,363.711111 L694.883254,329.116308 C714.879353,345.620251 735.827646,356.093907 761.219518,356.093907 C781.215617,356.093907 793.276756,348.159319 793.276756,335.146595 L793.276756,334.511828 C793.276756,322.133871 785.659194,315.786201 748.523582,306.264695 C703.770409,294.838889 674.887155,282.460932 674.887155,238.344624 L674.887155,237.709857 C674.887155,197.402151 707.261791,170.741935 752.649761,170.741935 C785.024397,170.741935 812.638058,180.898208 835.173343,198.989068 L809.781472,235.805556 C790.102772,222.158065 770.74147,213.906093 752.014964,213.906093 C733.288459,213.906093 723.449109,222.475448 723.449109,233.266487 L723.449109,233.901254 C723.449109,248.500896 732.971061,253.261649 771.376266,263.100538 C816.446838,274.843728 841.83871,291.030287 841.83871,329.751075 L841.83871,330.385842 Z M1049.58065,218.861751 L982.008231,218.861751 L982.008231,396.290323 L933.153059,396.290323 L933.153059,218.861751 L865.580645,218.861751 L865.580645,173.709677 L1049.58065,173.709677 L1049.58065,218.861751 Z M1306.29032,285 C1306.29032,348.218232 1256.3463,400 1187.6335,400 C1118.9207,400 1069.6129,348.853591 1069.6129,285.635359 L1069.6129,285 C1069.6129,221.781768 1119.55693,170 1188.26973,170 C1256.98253,170 1306.29032,221.146409 1306.29032,284.364641 L1306.29032,285 Z M1255.09677,285.634018 L1255.09677,285 C1255.09677,246.958944 1227.09311,215.258065 1187.63339,215.258065 C1148.17367,215.258065 1120.80645,246.324927 1120.80645,284.365982 L1120.80645,285 C1120.80645,323.041056 1148.81012,354.741935 1188.26984,354.741935 C1227.72955,354.741935 1255.09677,323.675073 1255.09677,285.634018 Z M1540,396.290323 L1482.82805,396.290323 L1435.18475,325.064516 L1396.75249,325.064516 L1396.75249,396.290323 L1347.83871,396.290323 L1347.83871,173.709677 L1449.47774,173.709677 C1501.88536,173.709677 1533.32994,201.373272 1533.32994,247.16129 L1533.32994,247.797235 C1533.32994,283.728111 1513.955,306.304147 1485.68664,316.797235 L1540,396.290323 Z M1483.6129,250.6052 L1483.6129,249.97031 C1483.6129,229.018938 1469.03956,218.225806 1445.27867,218.225806 L1396.80645,218.225806 L1396.80645,282.032258 L1446.2291,282.032258 C1469.98999,282.032258 1483.6129,269.334457 1483.6129,250.6052 Z" id="Combined-Shape"></path>
                        <path d="M200.831445,365 C200.979016,365 201.126554,364.999581 201.274056,364.998744 C201.309782,364.999147 201.347038,364.999564 201.385965,365 L239.050262,365 C239.058,367.69241 239.061438,369.284549 239.060578,369.776416 C238.97634,408.176366 238.983998,446.566101 239.05292,484.963497 C239.055473,487.673331 238.202885,489.215969 235.734464,490.398489 C222.802694,496.635448 213.04388,512.728437 215.706303,529.940094 C218.79502,549.935652 239.326054,565.03512 259.139792,561.158092 C276.594873,557.748452 288.061416,545.823652 290.517073,527.480556 C292.178854,515.03984 286.197975,498.617381 270.20812,490.393381 C268.03836,489.284929 266.841163,488.071761 266.848821,485.405346 C266.927954,448.108739 266.935612,410.812133 266.848821,373.523189 C266.848821,372.325075 267.047537,371.471231 267.43834,370.845072 L267.43834,365 L313.438596,365 C314.879693,365 316.310808,364.884808 317.719304,364.658707 C328.334697,363.573123 338.17664,359.950861 346.601294,354.42082 L412.746498,392.757592 L412.486652,392.959185 C414.250392,393.964272 416.014788,394.968112 417.779876,395.970622 C421.067701,397.832515 422.336372,399.891069 422.239371,403.742558 C421.65226,426.059735 441.100967,444.290454 463.776235,441.87178 C486.037972,439.504188 501.81085,418.065599 496.646822,396.38693 C490.456624,370.407263 462.33143,358.684232 439.612767,372.726329 C437.218373,374.202562 435.48767,374.6061 432.932459,373.109434 C413.708386,361.87167 394.438365,350.710527 375.089211,339.689857 C374.080291,339.116235 373.379814,338.556901 372.935643,337.938643 L366.212605,334.050144 C371.797662,324.745154 375,313.900597 375,302.317073 C375,279.326708 362.429438,259.372658 343.776182,248.46574 L344.016309,248.327095 C344.339853,248.083022 344.711244,247.842667 345.131208,247.601488 C353.31315,242.913189 361.491717,238.218334 369.666743,233.517034 L423.998143,202.147141 C427.001454,200.406176 430.004239,198.664369 433.006486,196.921726 C435.36259,195.560424 436.960554,195.537438 439.273263,197.090293 C447.515798,202.624892 456.756423,204.376961 466.451421,202.678526 C485.323227,199.368494 499.000373,182.281985 497.318171,162.112752 C495.487915,140.232315 474.037923,123.87626 452.613458,128.621661 C433.813126,132.787296 422.001974,147.488335 422.21895,166.814735 C422.249582,170.106889 421.33573,171.984106 418.400172,173.664663 C410.825508,178.001055 403.255656,182.344919 395.690278,186.696042 L395.695378,186.704891 L326.443654,226.837363 C314.240215,205.449082 292.462626,190.059978 266.905627,186.038815 C266.913201,153.524283 266.976032,121.009904 266.800321,88.4977354 C266.774794,83.6195242 267.91328,80.7922049 272.482539,78.1666546 C288.862951,68.7499191 295.088885,48.4785252 287.594279,31.1928008 C280.035857,13.7563883 260.727546,4.4418143 242.618984,9.96108888 C226.136467,14.9848802 216.949448,26.6338443 215.333615,43.5875438 C214.09047,56.6693228 220.275562,71.2017949 235.198405,79.3619441 C237.490693,80.6134223 239.088657,81.7142124 239.078447,84.8607863 C239.048018,94.431261 239.025619,104.001263 239.010622,113.571027 L239.56166,113.571027 L239.56166,186.151713 C216.905891,189.911776 196.935299,202.658197 184.275398,221.133664 C181.033896,221.847071 177.870326,222.765479 174.800323,223.874458 C146.271749,207.56351 117.869368,191.024323 89.2909826,174.790993 C85.0050686,172.35955 82.937415,169.751878 83.6521594,164.81237 C83.9380572,162.843207 83.3305244,160.733572 83.0088894,158.705666 C80.0809898,140.242531 62.0336923,124.798267 40.2493024,128.379028 C18.8784432,131.898491 5.30850914,151.247878 8.83628356,171.958566 C13.3340683,198.408176 43.5013896,211.796439 66.2608952,197.327818 C68.82887,195.695788 70.6055205,195.568087 73.2373116,197.103063 C81.3440931,201.834267 89.4630756,206.545344 97.5884515,211.245901 L97.8956035,210.712946 L148.581231,240.028716 C134.671625,253.219957 126,271.656939 126,292.170732 C126,308.026324 131.178712,322.636541 139.949188,334.543606 L80.9020323,368.636284 L80.8650719,368.381863 C77.9997101,370.019835 75.1330116,371.655415 72.2647487,373.288217 C70.983314,374.016118 68.4944717,373.865429 67.1926157,373.078786 C61.0687873,369.38054 54.5467441,366.923556 47.4095102,366.732003 C23.6646783,366.124142 9.22428769,385.529718 8.4125422,402.388918 C7.47316377,422.136734 22.4062176,442.36471 46.5569222,442.183373 C67.736332,442.025023 83.8538195,425.033012 83.6445014,403.831949 C83.6113169,400.044312 84.7242761,397.901474 88.0452852,396.014041 C104.359717,386.719614 128.713076,372.680728 161.105363,353.897382 C172.643239,360.939953 186.276266,365 200.831445,365 Z M482.711857,205.523724 C479.952433,207.173632 478.995186,208.854189 479.002844,212.000762 C479.097293,260.71647 479.089635,309.434731 479.015608,358.140222 C479.010502,361.067149 479.755879,362.831988 482.438723,364.377181 C499.735539,374.378791 508.488606,392.826602 505.38202,412.219407 C502.403067,430.802583 487.556804,446.068064 468.325073,449.722891 C457.175059,451.850404 446.37476,450.157077 436.603182,444.157644 C433.624229,442.334061 431.525944,442.65587 428.733335,444.264913 C386.877389,468.523159 344.975496,492.717555 303.025101,516.820004 C300.155913,518.472467 299.081244,520.285833 299.088902,523.63673 C299.132297,547.07513 281.051815,567.471672 258.46589,569.744765 C234.409634,572.173655 213.140881,557.048646 207.943668,533.691975 C207.147238,530.100998 206.879209,526.346564 206.797524,522.671304 C206.73626,520.181118 206.047042,518.656357 203.833887,517.374231 C161.304039,492.896337 118.809929,468.359701 76.3336867,443.787308 C74.0337412,442.446439 72.2264588,442.436223 69.906092,443.840943 C42.1510332,460.557117 6.77628793,444.533087 0.889856807,413.304873 C-2.8242617,393.577489 5.20129747,375.132232 22.8478275,364.742408 C25.6353309,363.095054 26.8963443,361.437484 26.891239,358.027844 C26.7636061,309.307029 26.7840274,260.59643 26.8606071,211.883277 C26.8631598,208.95635 26.1024675,207.224713 23.4247284,205.669304 C5.70927656,195.37398 -2.62515432,177.485503 0.777539821,157.400553 C4.15726003,137.448414 19.5778717,122.811226 39.6468749,119.950705 C50.403779,118.420836 60.7777842,120.382337 70.0847781,126.328136 C72.24688,127.712424 73.8525024,127.669005 76.0528943,126.399649 C118.404056,101.878337 160.788402,77.4259838 203.205933,53.0298196 C205.771355,51.5535861 206.771997,49.8602594 206.779655,46.8362792 C206.848577,20.0061175 228.038197,-0.533450329 254.887062,0.0105596133 C275.813759,0.429421728 295.395204,17.712592 298.363946,38.3747537 C298.634528,40.2749574 299.060822,41.4447065 299.060822,44.0600407 C299.060822,49.7887463 301.169318,52.2176358 305.626261,54.766565 C346.785331,78.330113 387.829531,102.077552 428.845652,125.865855 C431.663787,127.505547 433.71102,127.571952 436.646577,125.90672 C464.506295,110.007837 498.285629,125.245224 505.068043,156.705855 C505.706208,159.632782 505.644944,162.712951 505.867025,165.387028 C505.410099,183.244857 497.66278,196.553945 482.711857,205.523724 Z M449.284791,404.539417 C449.284791,398.335661 453.73918,393.830339 459.840035,393.843109 C465.713703,393.873758 470.719467,398.723874 470.778178,404.46535 C470.841994,409.992287 465.494174,415.337887 459.926825,415.348103 C453.966367,415.348103 449.287344,410.600148 449.284791,404.539417 Z M242.205454,46.1594593 C242.228427,40.1523636 246.910004,35.516786 252.959805,35.5116779 C259.019817,35.5065698 263.665656,40.1319313 263.68863,46.1620134 C263.703946,51.9443538 258.657339,57.0575364 252.980226,56.9860234 C247.208665,56.9298346 242.187585,51.8779488 242.205454,46.1594593 Z M56.6016344,404.582836 C56.5786605,410.638458 51.8587945,415.39663 45.9289681,415.348103 C40.3258821,415.294468 35.1465375,410.066354 35.1210109,404.421932 C35.0929317,398.782617 40.2186705,393.843109 46.0999963,393.843109 C52.1931928,393.848217 56.6246084,398.376525 56.6016344,404.582836 Z M253.077227,513.377162 C259.121923,513.418027 263.714156,518.017848 263.686077,524.004511 C263.647787,529.968188 258.986632,534.46074 252.860251,534.422429 C246.784923,534.391781 242.139084,529.758757 242.205454,523.789972 C242.274375,517.85439 247.009557,513.33119 253.077227,513.377162 Z M46.2199712,176.113985 C40.0935902,176.167619 35.3048023,171.700608 35.1235636,165.777796 C34.9423248,160.005671 39.7872711,155.160663 45.8268618,155.073825 C52.1319289,154.979326 56.5122914,159.183271 56.6016344,165.402352 C56.6960828,171.652081 52.4203794,176.057796 46.2199712,176.113985 Z M459.707297,176.129309 C453.514546,176.08589 449.223527,171.672514 449.284791,165.422784 C449.346055,159.219028 453.73918,154.999758 460.044248,155.081487 C466.088944,155.165771 470.900705,159.967361 470.757756,165.770134 C470.614808,171.649527 465.792835,176.172727 459.707297,176.129309 Z M200.831445,339 C173.862583,339 152,318.033822 152,292.170732 C152,266.412286 173.686024,245.511206 200.504342,245.342488 C209.087619,225.188832 229.613425,211 253.569405,211 C284.977435,211 310.489301,235.389346 310.921404,265.634267 C310.954255,265.634187 310.987116,265.634146 311.019987,265.634146 C331.995769,265.634146 349,282.057652 349,302.317073 C349,321.647239 333.519889,337.485309 313.880003,338.897557 C313.746876,338.963151 313.597039,339 313.438596,339 L201.385965,339 C201.363109,339 201.340432,338.999233 201.317958,338.997724 C201.155974,338.99924 200.993802,339 200.831445,339 Z" id="Shape"></path>
                    </g>
                </g>
            </g>
        </g>
    </g>
</svg>