<?xml version="1.0" encoding="UTF-8"?>
<svg width="1714px" height="298px" viewBox="0 0 1714 298" version="1.1" xmlns="http://www.w3.org/2000/svg" xmlns:xlink="http://www.w3.org/1999/xlink">
    <!-- Generator: Sketch 64 (93537) - https://sketch.com -->
    <title>storj-logo-type-mark-osp-color</title>
    <desc>Created with Sketch.</desc>
    <g id="Page-1" stroke="none" stroke-width="1" fill="none" fill-rule="evenodd">
        <g id="storj-logo-type-mark-osp-color" transform="translate(0.000000, -1.000000)">
            <g id="Group-112-Copy">
                <g id="Group-108" transform="translate(1207.130305, 25.394413)" fill="#606470" fill-rule="nonzero">
                    <g id="Group-107" transform="translate(0.272692, 0.011666)">
                        <g id="Group-111">
                            <path d="M2.40317305,0.5 C3.18286917,0.5 3.82362173,1.09488808 3.89630647,1.85553999 L3.90317305,2 L3.90317305,253.834141 C3.90317305,254.662568 3.23160018,255.334141 2.40317305,255.334141 C1.62347693,255.334141 0.982724373,254.739253 0.910039629,253.978601 L0.903173051,253.834141 L0.903173051,2 C0.903173051,1.17157288 1.57474593,0.5 2.40317305,0.5 Z" id="Line-4"></path>
                        </g>
                    </g>
                </g>
                <g id="Group-75-Copy">
                    <g id="Group-74-Copy-2" fill="#276CFF" fill-rule="nonzero">
                        <g id="Group-73" transform="translate(132.528392, 149.969579) rotate(-180.000000) translate(-132.528392, -149.969579) translate(0.028392, 0.969579)">
                            <path d="M132.516714,0.585337571 C146.061457,0.585337571 157.084632,11.3814491 157.450411,24.837842 L227.635326,65.3569063 C231.285209,63.3803047 235.222633,62.4077047 239.121767,62.3517998 L239.507453,62.3492567 C248.117782,62.3591393 256.488627,66.8317825 261.103479,74.8249408 C267.875736,86.5548333 264.037861,101.498932 252.567624,108.54405 L252.567624,189.585038 C264.037861,196.630156 267.875736,211.574255 261.103479,223.304147 C256.557505,231.178004 248.366821,235.635653 239.892818,235.776409 L239.507453,235.779848 C235.482671,235.784451 231.405563,234.813971 227.635281,232.772157 L157.450389,273.292058 C157.087913,286.611216 146.284305,297.323876 132.929194,297.540409 L132.516714,297.54375 C118.972307,297.54375 107.949342,286.748173 107.583045,273.292245 L37.4001011,232.771099 C33.749657,234.748428 29.8115069,235.721373 25.9116615,235.777288 L25.525976,235.779831 C16.9156469,235.769949 8.54480183,231.297305 3.92994977,223.304147 C-2.84230687,211.574255 0.995567791,196.630156 12.4658044,189.585038 L12.4658044,108.54405 C0.995567791,101.498932 -2.84230687,86.5548333 3.92994977,74.8249408 C8.47592344,66.9510834 16.6666076,62.4934353 25.1406106,62.3526786 L25.525976,62.3492403 C29.5506603,62.3446366 33.6276685,63.3150699 37.3978738,65.3567822 L107.58304,24.8370294 C107.945516,11.5178716 118.749124,0.805212009 132.104235,0.58867923 L132.516714,0.585337571 Z M132.516714,260.723026 L132.193787,260.727331 C132.166713,260.728054 132.139661,260.728867 132.112632,260.729771 L132.193412,260.727354 C132.085616,260.730243 131.978104,260.734572 131.870898,260.740328 L132.112632,260.729771 C131.99483,260.733709 131.877461,260.739362 131.760552,260.746707 L131.870898,260.740328 C131.761461,260.746203 131.652342,260.753565 131.543565,260.762397 L131.760552,260.746707 C131.653474,260.753434 131.546781,260.76158 131.440492,260.771127 L131.543565,260.762397 C131.447181,260.770224 131.351065,260.779204 131.255233,260.789329 L131.440492,260.771127 C131.323365,260.781646 131.206727,260.793866 131.090604,260.807761 L131.255233,260.789329 C131.14685,260.800779 131.03883,260.813692 130.931197,260.828053 L131.090604,260.807761 C130.992046,260.819555 130.893859,260.832555 130.796058,260.846747 L130.931197,260.828053 C130.809532,260.844285 130.688362,260.862367 130.567719,260.882275 L130.796058,260.846747 C130.697102,260.861107 130.598542,260.876686 130.500392,260.89347 L130.567719,260.882275 C130.465106,260.899207 130.362875,260.917461 130.261046,260.937022 L130.500392,260.89347 C130.392284,260.911957 130.284675,260.931905 130.177585,260.953293 L130.261046,260.937022 C130.130004,260.962195 129.999629,260.989533 129.869965,261.019006 L130.177585,260.953293 C129.930587,261.002623 129.686353,261.059614 129.445142,261.124007 C129.384522,261.140017 129.323893,261.156695 129.263439,261.173844 L129.445142,261.124007 C129.345611,261.150577 129.246595,261.178408 129.148112,261.207481 L129.263439,261.173844 C129.174997,261.198932 129.086931,261.225028 128.999256,261.252121 L129.148112,261.207481 C124.228964,262.659643 120.639062,267.210928 120.639062,272.600679 C120.639062,279.160526 125.956868,284.478332 132.516714,284.478332 C139.076561,284.478332 144.394367,279.160526 144.394367,272.600679 C144.394367,267.269626 140.882232,262.758875 136.045558,261.256025 C135.985238,261.236936 135.92424,261.218554 135.863058,261.200656 L136.045558,261.256025 C135.955086,261.227914 135.864151,261.200855 135.772766,261.174862 L135.863058,261.200656 C135.765824,261.172211 135.668125,261.144987 135.569983,261.118998 L135.772766,261.174862 C135.66756,261.144939 135.561758,261.116429 135.455383,261.089355 L135.569983,261.118998 C135.336869,261.057266 135.101248,261.002498 134.863385,260.954873 C134.82596,260.9473 134.788041,260.939893 134.750058,260.932667 L134.863385,260.954873 C134.752887,260.932749 134.641905,260.912167 134.530466,260.893144 L134.750058,260.932667 C134.658693,260.915284 134.566957,260.898948 134.474863,260.883671 L134.530466,260.893144 C134.431007,260.876167 134.331183,260.860431 134.231015,260.845951 L134.474863,260.883671 C134.352456,260.863367 134.229417,260.844934 134.105776,260.828403 L134.231015,260.845951 C134.135393,260.832128 134.039456,260.819449 133.943221,260.807925 L134.105776,260.828403 C133.996933,260.81385 133.887625,260.800772 133.77787,260.789189 L133.943221,260.807925 C133.826908,260.793997 133.71016,260.781756 133.593005,260.771222 L133.77787,260.789189 C133.682203,260.779092 133.586196,260.770131 133.489865,260.762319 L133.593005,260.771222 C133.486555,260.76165 133.37977,260.753488 133.272671,260.746749 L133.489865,260.762319 C133.381226,260.753509 133.272173,260.746162 133.162727,260.740296 L133.272671,260.746749 C133.155817,260.739397 133.038589,260.73374 132.921016,260.729797 L133.162727,260.740296 C132.948843,260.728832 132.733457,260.723026 132.516714,260.723026 Z M93.9053194,179.205831 L49.7194044,204.716214 C49.7508866,204.840443 49.7813739,204.964798 49.8108691,205.089269 C49.8199011,205.127378 49.8290418,205.166368 49.8380853,205.205368 C49.8579558,205.291073 49.8771838,205.376046 49.8959519,205.461069 C49.9096341,205.523042 49.923226,205.585766 49.9365683,205.648515 C49.9521177,205.721647 49.9672813,205.794584 49.9821084,205.867553 C49.9978268,205.944914 50.0130994,206.021961 50.027998,206.09904 C50.0707455,206.320177 50.1104936,206.542067 50.1471651,206.764167 C50.1564595,206.820453 50.1656146,206.877122 50.1745699,206.933804 C50.2602925,207.476437 50.3276555,208.019821 50.376959,208.563481 C50.3825107,208.624703 50.3878188,208.685754 50.3928995,208.746807 C50.4120356,208.976732 50.427959,209.206908 50.4406693,209.437049 C50.4417559,209.456724 50.4428178,209.476376 50.4438563,209.496028 L50.4406693,209.437049 C50.4472271,209.555789 50.4529296,209.674519 50.4577792,209.793231 C50.460703,209.864769 50.4633315,209.936748 50.4656469,210.008719 C50.4681948,210.08797 50.4703501,210.166639 50.472132,210.245294 C50.473493,210.305333 50.4746417,210.365708 50.4755706,210.426074 C50.4764907,210.485886 50.4771936,210.545519 50.4776823,210.605142 C50.4781304,210.659823 50.4783985,210.714493 50.4784866,210.769155 L50.4776823,210.605142 C50.4885739,211.933966 50.3930714,213.257844 50.1946334,214.563871 C50.1616557,214.780927 50.1257986,214.997692 50.0871089,215.213904 C50.0702218,215.30827 50.0528392,215.402299 50.034921,215.496219 C49.9968922,215.695563 49.9563862,215.89471 49.9134725,216.093314 C49.8980237,216.164813 49.8822215,216.236426 49.8661063,216.307965 C49.8544825,216.359564 49.8427626,216.410836 49.8308819,216.462069 C49.8197535,216.510062 49.8084032,216.558361 49.7969099,216.606624 C49.7749892,216.698665 49.7527043,216.789957 49.7299079,216.88112 C49.6618691,217.153225 49.5891533,217.424593 49.511899,217.694678 C49.4565009,217.888358 49.3987225,218.081526 49.338619,218.273988 C49.3182175,218.339314 49.2976496,218.404243 49.2768169,218.469089 C49.2597269,218.522287 49.2423933,218.575629 49.2248804,218.628913 C49.2045432,218.690792 49.1839278,218.752702 49.1630702,218.814534 C49.13468,218.898691 49.1059539,218.98238 49.0767837,219.065921 C49.0624864,219.106868 49.0480489,219.147873 49.0335042,219.188842 C49.0044819,219.270589 48.9751231,219.351947 48.9453414,219.433158 C48.9391135,219.450142 48.9326286,219.467766 48.9261238,219.485383 C48.8873334,219.590426 48.8481599,219.694375 48.8082917,219.798074 C48.7145721,220.041843 48.6169907,220.284277 48.5155954,220.525222 C48.4346502,220.717571 48.3512758,220.908967 48.2654845,221.099364 C48.236467,221.163765 48.2070089,221.228407 48.1772718,221.292932 C48.1581857,221.334344 48.1391592,221.375335 48.1200199,221.416277 C48.0793433,221.503293 48.0380588,221.590297 47.996264,221.677077 C47.9671301,221.737566 47.9379248,221.797588 47.9084749,221.857501 C47.8816238,221.912127 47.854514,221.966774 47.8272005,222.021328 C47.7914687,222.092694 47.7555127,222.16366 47.7192109,222.234467 C47.696807,222.278169 47.673898,222.322528 47.6508531,222.366824 C47.6126422,222.440266 47.5744396,222.512817 47.5358715,222.585194 C47.5141586,222.625941 47.4923085,222.666672 47.4703425,222.707347 C47.361888,222.908179 47.250577,223.107704 47.1364571,223.305801 L47.1364571,223.305801 L110.911703,260.127207 C110.924333,260.105377 110.936996,260.083568 110.949691,260.061779 C111.067502,259.859586 111.187885,259.659506 111.310971,259.46128 C111.331916,259.427547 111.352935,259.393877 111.374031,259.360261 C111.420849,259.285656 111.468212,259.211066 111.515958,259.136746 C111.547001,259.088429 111.577852,259.040769 111.608861,258.993221 C111.647525,258.933931 111.686878,258.874148 111.72648,258.814545 C111.762474,258.760375 111.798404,258.706753 111.834537,258.653278 C111.858148,258.618334 111.881976,258.583261 111.905891,258.548253 C112.292269,257.982651 112.701203,257.433915 113.131492,256.903197 C113.257012,256.748377 113.384583,256.594814 113.513946,256.442822 C113.634099,256.301651 113.755874,256.161749 113.87917,256.02323 C113.937713,255.95746 113.996492,255.892119 114.05561,255.827092 C114.088518,255.790893 114.12174,255.754565 114.155068,255.718336 C114.18935,255.68107 114.223566,255.644099 114.257893,255.607233 C114.400356,255.454227 114.544863,255.302868 114.691235,255.153344 C115.150772,254.683891 115.629084,254.232184 116.124651,253.799751 L116.168955,253.761183 C116.328565,253.622563 116.489954,253.485939 116.653083,253.351348 C116.679528,253.329531 116.705568,253.308135 116.731653,253.286791 C116.792451,253.23704 116.854026,253.187137 116.915844,253.137523 C116.971446,253.092898 117.027128,253.048597 117.083003,253.00453 C117.113634,252.980371 117.144303,252.9563 117.175029,252.932299 C117.376426,252.774986 117.580114,252.620835 117.786207,252.469773 C117.798946,252.460436 117.810876,252.45171 117.822813,252.442993 C117.885026,252.397563 117.947983,252.352037 118.01116,252.306799 C118.161607,252.199075 118.313051,252.093153 118.465713,251.988882 L118.529434,251.945504 C118.95749,251.655067 119.395051,251.377587 119.841553,251.113628 C119.885072,251.087901 119.928631,251.062328 119.972274,251.036885 C120.153744,250.931088 120.336772,250.82746 120.521221,250.726098 C120.595615,250.685217 120.669834,250.644922 120.74428,250.604994 C120.788127,250.581477 120.83215,250.558036 120.876251,250.534723 C120.926976,250.507908 120.977933,250.481196 121.028993,250.454656 C121.116264,250.409295 121.203638,250.364535 121.291308,250.320278 C121.326611,250.302455 121.36228,250.284556 121.397997,250.26674 C121.599617,250.166176 121.802361,250.068462 122.006607,249.973431 C122.053574,249.951578 122.100902,249.929737 122.148309,249.908041 C122.35788,249.812138 122.568455,249.719287 122.780532,249.629288 C122.989633,249.540551 123.200288,249.454548 123.412359,249.371366 C123.606755,249.295115 123.802555,249.221156 123.999511,249.149607 C124.046674,249.132475 124.093607,249.115586 124.140605,249.098835 C124.231865,249.066305 124.323847,249.034128 124.416073,249.002476 C124.438914,248.994638 124.461199,248.987026 124.483499,248.979444 C124.584441,248.945123 124.686156,248.911274 124.78816,248.878065 C124.826587,248.865555 124.864881,248.853191 124.903215,248.840917 C125.005689,248.808106 125.108683,248.77587 125.211961,248.744285 C125.235472,248.737095 125.258811,248.729996 125.282164,248.72293 C125.367568,248.697087 125.453345,248.671639 125.539313,248.64664 C125.613003,248.625213 125.686692,248.604156 125.760518,248.58343 C125.779163,248.578196 125.797577,248.57305 125.815999,248.567925 L125.815251,200.531616 C112.168852,198.844697 100.449482,190.713653 93.9053194,179.205831 Z M168.856203,178.193121 C162.750571,189.659368 151.709773,197.781636 138.880614,200.147007 L138.88071,248.476793 C139.024393,248.514596 139.167571,248.553649 139.310228,248.593938 C139.373457,248.611807 139.436187,248.629793 139.498814,248.648018 C139.980368,248.788131 140.456282,248.942518 140.92569,249.110575 C140.967228,249.125466 141.008885,249.140506 141.050489,249.155654 C141.142552,249.189153 141.233989,249.223059 141.325171,249.257484 C141.35728,249.269628 141.389591,249.281904 141.421871,249.294246 C141.508912,249.327501 141.595508,249.361169 141.681867,249.395306 C141.725948,249.412756 141.770161,249.43038 141.814311,249.448127 C141.913216,249.487855 142.01168,249.528174 142.109826,249.569101 C142.137175,249.580534 142.164792,249.59211 142.192384,249.603733 C142.411259,249.695907 142.628178,249.790979 142.843458,249.889022 C142.902248,249.915835 142.960599,249.942685 143.018828,249.969753 C143.191836,250.050133 143.364022,250.132603 143.535101,250.216977 C143.641377,250.26944 143.747097,250.322525 143.852385,250.376337 C143.915003,250.408287 143.977909,250.440775 144.040658,250.473522 C144.067035,250.487342 144.093025,250.500965 144.118988,250.514633 C144.218082,250.566739 144.317041,250.619689 144.415598,250.673285 C144.450756,250.692463 144.486187,250.711843 144.521567,250.731305 C144.58198,250.764478 144.64199,250.797815 144.701848,250.831391 C144.892065,250.938161 145.080713,251.04727 145.267779,251.158757 C145.308577,251.182996 145.348899,251.207182 145.389146,251.231479 C145.466724,251.278389 145.544367,251.325842 145.621728,251.373706 C145.670058,251.403524 145.718163,251.433514 145.766158,251.463662 C145.813787,251.493667 145.861712,251.524 145.909527,251.554491 C145.965078,251.589828 146.019786,251.625018 146.074347,251.660416 C146.249625,251.774224 146.42387,251.890411 146.596551,252.008714 C146.657201,252.050156 146.71762,252.09194 146.777844,252.133982 C147.086102,252.349297 147.389279,252.571293 147.687151,252.79986 C147.744768,252.843929 147.802303,252.888474 147.859637,252.933265 L147.905828,252.969585 C148.147703,253.159467 148.385982,253.353723 148.620546,253.552234 C148.678751,253.601319 148.736306,253.650477 148.793635,253.699891 C148.853195,253.751413 148.912616,253.803123 148.971788,253.855108 C149.012434,253.890626 149.053078,253.926566 149.093604,253.962636 C149.126546,253.992152 149.159138,254.021317 149.191653,254.050565 C149.662146,254.473578 150.116335,254.914307 150.553306,255.371628 C150.592943,255.413379 150.632994,255.455588 150.672899,255.497937 C150.853101,255.688897 151.029993,255.882614 151.203834,256.079092 L151.214561,256.091535 C151.520458,256.437737 151.816891,256.792501 152.103454,257.15542 C152.146676,257.20978 152.189546,257.264537 152.23219,257.319476 C152.271454,257.37045 152.310704,257.421422 152.349761,257.47255 C152.391112,257.526281 152.432026,257.580291 152.472724,257.634471 C152.502675,257.674756 152.532541,257.714768 152.56229,257.754871 C152.615623,257.826345 152.668701,257.898703 152.721398,257.971357 C152.753285,258.015754 152.785183,258.060038 152.816939,258.10443 C152.858497,258.162085 152.899389,258.219764 152.940041,258.277623 C152.974742,258.327464 153.009846,258.377819 153.044769,258.428309 C153.090988,258.494669 153.136318,258.560885 153.181335,258.627329 C153.212456,258.673741 153.243868,258.720444 153.275127,258.767259 C153.542516,259.167225 153.798301,259.575299 154.042384,259.991071 L154.121384,260.127207 L217.897315,223.306398 L217.897315,223.306398 C217.762537,223.072337 217.634271,222.841137 217.509794,222.608128 C217.466946,222.527921 217.424616,222.44763 217.382734,222.367129 C217.351272,222.306653 217.320218,222.246364 217.289416,222.18596 C217.271251,222.150339 217.253192,222.114713 217.23522,222.079047 C217.124675,221.859675 217.017329,221.638584 216.913313,221.416071 C216.894069,221.374902 216.875044,221.333913 216.856131,221.292877 C216.819531,221.213459 216.783328,221.133807 216.747549,221.05398 C216.730746,221.01649 216.714099,220.979102 216.697546,220.941677 C216.66087,220.858761 216.624618,220.775581 216.588824,220.69222 C216.438997,220.343269 216.297324,219.991451 216.163752,219.636753 C216.03584,219.297091 215.915314,218.954661 215.802294,218.609857 C215.788389,218.567441 215.774419,218.524431 215.760566,218.481386 C215.592344,217.95866 215.441412,217.430883 215.307918,216.898677 C215.292714,216.838062 215.277744,216.777422 215.263001,216.716726 C215.212746,216.50984 215.165117,216.302283 215.120132,216.094129 C215.109195,216.043516 215.098487,215.993217 215.087934,215.942884 C215.06763,215.846052 215.047826,215.748731 215.028599,215.651288 C215.019725,215.606318 215.01098,215.561347 215.002357,215.51635 C214.933507,215.157053 214.872513,214.796256 214.819428,214.434121 C214.800554,214.305361 214.782673,214.17639 214.765796,214.047262 C214.743284,213.875011 214.722565,213.702547 214.703638,213.529833 C214.663956,213.167757 214.632133,212.804273 214.608274,212.43996 C214.603554,212.367885 214.599151,212.295874 214.59506,212.223832 C214.591908,212.168336 214.588932,212.112641 214.586142,212.056929 C214.574391,211.82226 214.565947,211.587407 214.560826,211.352323 C214.555398,211.103097 214.553701,210.853873 214.555752,210.604476 C214.556238,210.545186 214.556946,210.48522 214.557871,210.425245 C214.558563,210.38044 214.559359,210.336474 214.560272,210.292503 C214.565215,210.054003 214.573629,209.814592 214.585519,209.575129 C214.589735,209.490202 214.594397,209.405124 214.599498,209.320042 C214.602983,209.261937 214.606667,209.203897 214.610557,209.145857 C214.613716,209.098716 214.617003,209.051679 214.620424,209.004643 C214.64041,208.729865 214.665004,208.45498 214.694228,208.180218 C214.694683,208.17594 214.695146,208.171601 214.695609,208.167263 L214.694228,208.180218 C214.754421,207.614288 214.834256,207.048882 214.934,206.484996 C214.943692,206.430205 214.953563,206.375475 214.963622,206.320761 C214.976388,206.251328 214.989453,206.181933 215.002821,206.112565 C215.042705,205.905603 215.085272,205.698938 215.130547,205.492558 C215.168208,205.320872 215.20785,205.14894 215.249384,204.977233 Z M19.5924565,200.546262 C13.9114628,203.826186 11.9650106,211.090444 15.2449338,216.771438 C18.5248571,222.452432 25.7891157,224.398884 31.4701094,221.118961 C35.9481567,218.533559 38.1057871,213.472534 37.2123435,208.662734 C37.2042431,208.615829 37.1951907,208.568849 37.1858495,208.521907 L37.2123435,208.662734 C37.1958003,208.573674 37.1782109,208.4847 37.1595708,208.39583 L37.1858495,208.521907 C37.1631333,208.407754 37.1387087,208.293825 37.1125728,208.180157 L37.1595708,208.39583 C37.1344187,208.275912 37.1073534,208.156183 37.0783636,208.036684 L37.1125728,208.180157 C37.09098,208.086247 37.0682191,207.992515 37.0442888,207.898982 L37.0783636,208.036684 C37.0536345,207.934748 37.027505,207.832981 36.9999681,207.731407 L37.0442888,207.898982 C37.0158696,207.787904 36.9858009,207.677105 36.9540804,207.566622 L36.9999681,207.731407 C36.974312,207.636772 36.9474341,207.542305 36.9193288,207.448028 L36.9540804,207.566622 C36.8537643,207.217218 36.7369266,206.87096 36.6034879,206.528939 C36.5848561,206.480841 36.565706,206.432684 36.5462186,206.3846 L36.6034879,206.528939 C36.5612795,206.420753 36.51741,206.312991 36.471877,206.205688 L36.5462186,206.3846 C36.5063432,206.28621 36.4650554,206.188127 36.4223482,206.090376 L36.471877,206.205688 C36.4335705,206.115414 36.3940866,206.025465 36.3534238,205.935861 L36.4223482,206.090376 C36.3716127,205.974249 36.318874,205.858591 36.2641206,205.743445 L36.3534238,205.935861 C36.3097959,205.839724 36.264811,205.743983 36.2184671,205.648665 L36.2641206,205.743445 C36.2190843,205.648734 36.172685,205.554369 36.1249162,205.460374 L36.2184671,205.648665 C36.1620238,205.532575 36.1035648,205.417112 36.0430867,205.302322 L36.1249162,205.460374 C36.0562375,205.325235 35.9847281,205.190862 35.9103688,205.057325 L35.8176321,204.893785 C35.6549709,204.612048 35.4821263,204.338923 35.2997379,204.074719 C35.2737499,204.03693 35.2476249,203.999539 35.2213159,203.96234 L35.2997379,204.074719 C35.1724014,203.890263 35.0404131,203.710156 34.9039904,203.534502 C34.8799963,203.50341 34.8562139,203.473098 34.8323043,203.442927 L34.9039904,203.534502 C34.8484031,203.46293 34.7920795,203.392097 34.7350345,203.32201 L34.8323043,203.442927 C34.7554292,203.34592 34.6772399,203.250374 34.5977775,203.1563 L34.7350345,203.32201 C34.6705409,203.242773 34.6051251,203.164489 34.5388083,203.087171 L34.5977775,203.1563 C34.5380909,203.085638 34.4776859,203.015807 34.4165799,202.946811 L34.5388083,203.087171 C34.379596,202.901545 34.215191,202.721479 34.0458877,202.547116 C33.9236881,202.421468 33.7990542,202.298809 33.672097,202.17928 C33.5547012,202.068216 33.4348654,201.959838 33.3130251,201.854094 C33.2470748,201.7977 33.1812625,201.741915 33.114918,201.686916 L33.3130251,201.854094 C33.2348171,201.786218 33.1557831,201.719427 33.0759465,201.653734 L33.114918,201.686916 C29.3999595,198.607232 24.0161943,197.992216 19.5924565,200.546262 Z M231.268618,202.267524 L231.172871,202.360445 C231.051662,202.479846 230.932811,202.602078 230.816419,202.727093 C230.80015,202.744566 230.784486,202.761483 230.768864,202.778453 L230.816419,202.727093 C230.743397,202.805524 230.671343,202.885049 230.600283,202.965658 L230.768864,202.778453 C230.691302,202.862712 230.614806,202.948274 230.53941,203.035129 L230.600283,202.965658 C230.526468,203.04939 230.453726,203.134291 230.382082,203.220346 L230.53941,203.035129 C230.474935,203.109404 230.411264,203.184625 230.348419,203.260786 L230.382082,203.220346 C230.321492,203.293126 230.261687,203.366731 230.202687,203.441155 L230.348419,203.260786 C230.265526,203.361242 230.184069,203.463334 230.104096,203.56705 L230.202687,203.441155 C230.135631,203.525738 230.069613,203.611378 230.004658,203.698062 L230.104096,203.56705 C230.044006,203.644979 229.984754,203.723824 229.926361,203.80358 L230.004658,203.698062 C229.941658,203.782138 229.879657,203.867197 229.818679,203.953226 L229.926361,203.80358 C229.860113,203.894063 229.79497,203.985719 229.730962,204.078539 L229.818679,203.953226 C229.60481,204.254958 229.403522,204.568636 229.215797,204.893785 C229.184433,204.948108 229.153537,205.002599 229.123106,205.057252 L229.215797,204.893785 C229.076209,205.135557 228.946088,205.380197 228.825318,205.627275 C228.795804,205.687817 228.766802,205.748459 228.738347,205.809267 L228.825318,205.627275 C228.791026,205.697431 228.757489,205.767782 228.724703,205.838321 L228.738347,205.809267 C228.691707,205.908936 228.646537,206.009048 228.602835,206.109574 C228.589917,206.139001 228.577158,206.168676 228.564528,206.19838 L228.602835,206.109574 C228.411581,206.549508 228.248448,206.997363 228.113259,207.450742 C228.104905,207.478901 228.096707,207.506804 228.088616,207.534722 L228.113259,207.450742 C228.0827,207.553226 228.053569,207.655994 228.025864,207.759015 L228.088616,207.534722 C228.056832,207.644402 228.026702,207.75433 227.998219,207.864472 L228.025864,207.759015 C227.999533,207.856927 227.974491,207.955068 227.950734,208.053416 L227.998219,207.864472 C227.941059,208.085503 227.890528,208.307396 227.846553,208.529882 C227.839899,208.560631 227.833948,208.59128 227.828121,208.621943 L227.846553,208.529882 C226.888088,213.379083 229.044022,218.509743 233.563319,221.118961 C239.244313,224.398884 246.508572,222.452432 249.788495,216.771438 C253.068418,211.090444 251.121966,203.826186 245.440972,200.546262 C240.751898,197.839024 234.984177,198.692411 231.268618,202.267524 Z M222.111088,105.185765 L193.815794,121.522713 C198.626902,127.446002 201.510229,134.998275 201.510229,143.223986 C201.510229,155.602916 194.980226,166.456683 185.176915,172.528556 L221.536711,193.520987 C221.684076,193.36782 221.833158,193.216814 221.98391,193.067982 C222.244675,192.81054 222.510304,192.55972 222.780669,192.315468 C223.877867,191.324265 225.052764,190.441388 226.288694,189.671145 C226.770012,189.371186 227.260493,189.088359 227.759229,188.822875 L227.774588,188.814706 C228.00115,188.694307 228.229412,188.577485 228.459281,188.464264 C228.789972,188.301392 229.123596,188.146147 229.46026,187.998414 C229.573408,187.948764 229.686772,187.900016 229.800469,187.852117 C230.0581,187.743576 230.317743,187.63928 230.578972,187.539388 C230.746738,187.475241 230.914548,187.413129 231.082975,187.35283 C231.398514,187.23986 231.716305,187.133224 232.036053,187.033008 C232.231192,186.971849 232.4269,186.913127 232.623288,186.856805 C232.968663,186.757753 233.316266,186.666094 233.665713,186.581933 C233.873434,186.531904 234.082077,186.484465 234.291319,186.439698 C234.491567,186.396854 234.692555,186.356419 234.894044,186.318449 C234.934876,186.310755 234.975186,186.303262 235.015516,186.295867 C235.167454,186.268006 235.320169,186.241463 235.473143,186.216334 C235.67546,186.183104 235.877768,186.152412 236.08048,186.124197 C236.102225,186.121171 236.123605,186.118223 236.14499,186.115303 C236.187061,186.109558 236.229663,186.103852 236.272283,186.098255 C236.50927,186.067136 236.746478,186.039431 236.984138,186.015118 C237.213665,185.991643 237.442972,185.971381 237.672632,185.954284 C237.726097,185.950304 237.779544,185.946498 237.83301,185.942863 C238.066154,185.927013 238.299755,185.91442 238.533632,185.905111 C238.581187,185.903219 238.628563,185.901469 238.675951,185.899854 C238.821058,185.894907 238.966224,185.891226 239.111473,185.888814 L239.496839,185.885376 L239.502177,185.885386 L239.502177,112.243701 L239.502177,112.243701 L239.496839,112.243696 C238.725539,112.242811 237.956161,112.206115 237.191232,112.134286 C237.054552,112.12145 236.918195,112.107513 236.781993,112.09246 C236.47012,112.057997 236.15879,112.017647 235.848453,111.971488 C235.631751,111.939254 235.415709,111.904219 235.200208,111.866371 C234.911925,111.815739 234.62472,111.760096 234.338624,111.699463 C234.108903,111.650772 233.880431,111.598991 233.652743,111.544027 L233.240687,111.440858 C232.469801,111.2409 231.708486,111.004266 230.95958,110.731717 C230.786022,110.668548 230.613825,110.60372 230.442324,110.536988 C230.084651,110.397761 229.733117,110.251629 229.384867,110.097442 C229.325448,110.071136 229.265516,110.044321 229.205683,110.017267 C229.062198,109.952384 228.919938,109.886438 228.778265,109.819136 C228.509475,109.691449 228.242772,109.55887 227.978327,109.421451 C227.24017,109.037862 226.519712,108.616626 225.820032,108.158541 C225.643298,108.042833 225.467932,107.924802 225.293943,107.804434 C225.222894,107.755283 225.151903,107.705621 225.081147,107.655568 C224.861412,107.500126 224.644162,107.341089 224.429271,107.178323 C223.621158,106.56621 222.846662,105.901596 222.111088,105.185765 Z M42.727047,105.371338 L42.5940978,105.499387 C42.162502,105.904251 41.7181864,106.291941 41.2622291,106.662169 C40.456166,107.316644 39.6142086,107.916244 38.7418561,108.459737 L38.7286592,108.467953 C38.53841,108.586317 38.3467177,108.702014 38.1536437,108.815027 C38.1084403,108.841488 38.0626139,108.868117 38.0167107,108.894596 L38.1536437,108.815027 C37.7807462,109.033298 37.402695,109.241559 37.0199339,109.43969 C36.4739981,109.722288 35.9184678,109.984284 35.3546437,110.225329 C34.5090472,110.586843 33.6446055,110.901288 32.7658482,111.16742 C32.7052746,111.185764 32.6448025,111.203829 32.5842642,111.221665 C32.3883426,111.279395 32.1910085,111.334922 31.993024,111.388025 C31.6695851,111.474771 31.3447174,111.554976 31.0183276,111.628663 C30.9417395,111.645955 30.8647185,111.662964 30.7876158,111.67961 C30.568392,111.726939 30.3484264,111.771349 30.1278623,111.812808 C30.1084843,111.81645 30.0891734,111.820056 30.069858,111.82364 C29.9595684,111.844102 29.8491038,111.863831 29.7384989,111.882819 L30.069858,111.82364 C29.9008519,111.854996 29.7314981,111.884618 29.5618249,111.912501 C29.3380179,111.949279 29.1137111,111.983021 28.8889143,112.01372 C28.6500342,112.046342 28.4105615,112.07553 28.1706137,112.10126 C28.1292286,112.105698 28.0875303,112.110064 28.0458182,112.114325 C27.8213937,112.13725 27.5967717,112.157134 27.3718112,112.173982 C27.3149727,112.178239 27.2579537,112.182313 27.2009139,112.186191 C26.977459,112.201383 26.7540706,112.213562 26.5304277,112.222738 C26.4725727,112.225113 26.4142914,112.227301 26.3559939,112.229285 C26.3297838,112.230176 26.3041565,112.231008 26.2785262,112.2318 C26.0301178,112.239484 25.7810778,112.243462 25.5318376,112.243701 L25.585047,112.242338 L25.53659,112.243712 L25.5318376,112.243701 L25.5318376,185.885387 L25.5318376,185.885387 L25.53659,185.885392 C25.9958388,185.885919 26.4544062,185.899142 26.9117588,185.924918 C27.1022298,185.935651 27.2927084,185.948578 27.4829371,185.963678 C27.7390762,185.984002 27.9953927,186.008334 28.251159,186.036597 C28.5179385,186.066075 28.7843236,186.099859 29.050001,186.137899 C29.2299182,186.16366 29.4094724,186.191366 29.5886687,186.221013 C29.805021,186.256808 30.0207817,186.29542 30.2359618,186.336845 C30.4420273,186.376513 30.6477767,186.418807 30.8529405,186.463672 C31.4403344,186.592115 32.0232856,186.741735 32.6002086,186.912126 C33.2704501,187.110177 33.9293646,187.335027 34.5783286,187.587132 C34.8119399,187.677886 35.0440936,187.772101 35.2748717,187.869819 C35.3483454,187.900928 35.4220117,187.932537 35.4955344,187.964504 C35.8035404,188.098426 36.1086374,188.238436 36.4110104,188.384647 C36.5685595,188.460827 36.7256697,188.538844 36.8820075,188.618544 C37.3679971,188.866289 37.8467606,189.130432 38.3171517,189.410607 C38.460093,189.495745 38.6023015,189.582389 38.7437112,189.670507 L39.1002989,189.896938 C39.2191937,189.97386 39.3374973,190.051841 39.4551941,190.130877 C40.8326212,191.056005 42.1254422,192.12408 43.3105863,193.329602 L88.3236805,167.342482 C73.9919705,165.542379 62.870436,153.424924 62.6310796,138.66212 L62.6310796,138.66212 L62.6271412,138.175983 C62.6271412,131.46918 64.8730966,125.286947 68.6539174,120.340376 L42.727047,105.371338 Z M134.053279,121.844211 L92.0243322,121.844211 C83.0045431,121.844211 75.6925594,129.156194 75.6925594,138.175983 C75.6925594,147.195772 83.0045431,154.507756 92.0245972,154.507756 L92.0245972,154.507756 L101.022593,154.508121 L101.505824,160.516911 C102.74016,175.865382 115.603014,187.790819 131.103092,187.790819 C143.484726,187.790819 154.433827,180.142993 158.817643,168.784277 L158.817643,168.784277 L160.431132,164.603637 L167.065036,164.603761 C178.87276,164.603761 188.444811,155.03171 188.444811,143.223986 C188.444811,131.416262 178.87276,121.844211 167.065036,121.844211 L167.065036,121.844211 L135.132094,121.844211 C134.986949,121.844211 134.84515,121.845648 134.706462,121.848533 L134.706462,121.848533 L134.566022,121.851455 L134.239602,121.845243 L134.053279,121.844211 Z M154.121388,38.0024656 L154.050298,38.1245268 C153.946775,38.3011217 153.841142,38.4763298 153.733433,38.6501164 C153.700077,38.7039346 153.666728,38.757289 153.633183,38.8105079 C153.603259,38.8579851 153.57297,38.9056805 153.542524,38.9532657 C153.505384,39.0113104 153.468188,39.0689202 153.430761,39.1263662 C153.109903,39.6188538 152.772018,40.0994414 152.418025,40.5671612 C152.24413,40.7969156 152.066608,41.0232441 151.885308,41.246379 C151.592411,41.6068533 151.289835,41.9587926 150.977819,42.3019962 C150.949084,42.3336027 150.92042,42.3649706 150.891677,42.396265 C150.834068,42.4589905 150.775882,42.5216967 150.717379,42.5841019 C150.686276,42.6172786 150.655523,42.6499053 150.624683,42.6824489 C150.564966,42.7454677 150.504577,42.8085345 150.44386,42.8712834 C149.909641,43.4233758 149.350329,43.9507076 148.767623,44.4515865 C148.505823,44.6766295 148.239018,44.8965556 147.967651,45.1109613 C147.931868,45.1392348 147.895507,45.1678019 147.859064,45.1962699 C147.794403,45.2467804 147.729745,45.2967813 147.664836,45.3464705 C147.60688,45.3908378 147.548477,45.4351422 147.489874,45.4791943 C147.451497,45.5080425 147.412853,45.5369176 147.374123,45.5656831 C147.202398,45.6932198 147.029327,45.8183547 146.854607,45.9413032 C146.80697,45.9748242 146.759444,46.0080205 146.711797,46.041055 C146.544223,46.1572389 146.375083,46.271471 146.204484,46.3836662 C146.130279,46.4324677 146.055716,46.4809362 145.98088,46.5290155 C145.769628,46.6647352 145.556297,46.7972932 145.340851,46.9266896 C145.293019,46.9554177 145.244987,46.9840463 145.196852,47.0125177 C145.019073,47.1176678 144.84017,47.2205099 144.659889,47.3211798 C144.611081,47.3484357 144.561696,47.3757944 144.512208,47.40299 C144.450418,47.4369435 144.389155,47.4702738 144.327736,47.5033541 C144.134458,47.6074621 143.939038,47.709403 143.742121,47.8088101 C143.711199,47.8244202 143.680188,47.8399937 143.64914,47.8555044 C143.573886,47.8930988 143.498516,47.9302753 143.422932,47.967081 C143.368377,47.9936466 143.313637,48.0200548 143.258785,48.0462685 C143.075981,48.1336314 142.891974,48.2188213 142.706771,48.3018182 C142.523429,48.3839803 142.338987,48.4639627 142.153406,48.5417658 C141.93926,48.6315472 141.723296,48.7185433 141.505859,48.8025801 C141.262724,48.8965501 141.017642,48.9868571 140.770787,49.0733917 C140.736818,49.0852988 140.703091,49.0970393 140.669331,49.1087095 C140.460134,49.1810288 140.249294,49.2507629 140.037229,49.3177399 C139.988273,49.3332005 139.939871,49.3483229 139.891405,49.3633014 C139.823325,49.3843446 139.754287,49.4053538 139.685123,49.4260709 C139.622445,49.4448429 139.56045,49.463146 139.498356,49.4812142 C139.423936,49.5028706 139.348909,49.5243194 139.273739,49.5454248 C139.239215,49.5551178 139.204886,49.564676 139.170528,49.5741626 C139.105651,49.5920764 139.040271,49.6098411 138.974784,49.6273459 L138.880047,49.6513376 L138.880047,108.778338 L167.065036,108.778792 C172.814825,108.778792 178.23557,110.187598 183.000917,112.678855 L215.454252,93.9416103 C215.389091,93.7064323 215.327531,93.4707433 215.269554,93.2346177 C215.218386,93.026234 215.169947,92.8172274 215.124291,92.6079312 C215.081598,92.4121967 215.04142,92.2166292 215.003655,92.0208515 C214.989268,91.9462618 214.975292,91.8719682 214.961661,91.7976465 C214.948055,91.7234637 214.934719,91.6488172 214.921731,91.5741448 C214.828349,91.0372114 214.75303,90.4992241 214.695495,89.9607555 C214.685006,89.8625916 214.675101,89.7643394 214.665787,89.6660763 C214.648688,89.4856556 214.633611,89.3056186 214.620506,89.1255772 C214.616042,89.0642389 214.611806,89.0028987 214.607799,88.9415594 C214.602381,88.8586277 214.59736,88.7753309 214.59276,88.6920386 C214.589597,88.6347578 214.586648,88.5777987 214.583897,88.5208428 C214.572541,88.2858188 214.56453,88.0507501 214.55985,87.8158064 C214.55848,87.7470468 214.557396,87.6783395 214.556596,87.6096447 C214.555986,87.5572531 214.55554,87.5046241 214.555261,87.4520032 L214.556596,87.6096447 C214.552873,87.2896745 214.55532,86.9699748 214.56389,86.6507258 C214.569285,86.449744 214.57711,86.2488943 214.587349,86.0482683 C214.590407,85.9883666 214.593667,85.9287107 214.597141,85.8690758 C214.600626,85.8092293 214.604339,85.7492152 214.608268,85.6892236 C214.64035,85.1993454 214.686822,84.7110549 214.747513,84.2249189 C214.765005,84.0847973 214.783705,83.9446738 214.803584,83.8047455 C214.814926,83.724911 214.826685,83.6449194 214.838829,83.5649946 L214.803584,83.8047455 C214.861132,83.3996776 214.92857,82.9962458 215.005795,82.5948333 C215.014607,82.5490286 215.023534,82.5033155 215.032587,82.4576293 C215.106476,82.0847577 215.188862,81.7134955 215.279627,81.3443278 C215.343199,81.0857587 215.410911,80.8281155 215.482708,80.5716067 C215.496382,80.5227553 215.510157,80.4741093 215.524079,80.4255049 C215.533971,80.3909662 215.544102,80.3558845 215.554309,80.3208248 L215.524079,80.4255049 C215.602843,80.1505258 215.686311,79.8768781 215.77445,79.6046933 C215.786745,79.5667246 215.799167,79.5286744 215.81168,79.4906532 C215.838927,79.4078634 215.8666,79.3252321 215.894704,79.242742 C215.906598,79.2078307 215.918609,79.1728297 215.930698,79.1378545 C216.009088,78.9110567 216.090767,78.685289 216.175697,78.460681 C216.326374,78.0622078 216.487155,77.6676703 216.658036,77.2772102 C216.782211,76.9934658 216.911809,76.711686 217.046703,76.4322284 C217.079241,76.3648141 217.112445,76.2968105 217.145964,76.2289475 C217.172713,76.1747921 217.199484,76.1210796 217.226452,76.0674566 C217.260834,75.9990902 217.295818,75.9303193 217.331128,75.8616987 C217.353192,75.8188203 217.375321,75.7761194 217.397575,75.7334775 C217.43584,75.6601614 217.474421,75.5871228 217.513373,75.5142612 C217.636485,75.2839604 217.763677,75.0547723 217.894566,74.8274625 L217.89731,74.8226984 L154.121388,38.0024656 L154.121388,38.0024656 Z M110.912041,38.0024656 L47.1361184,74.8226984 C47.2402156,75.0033868 47.341976,75.1852627 47.4413859,75.3682763 C47.4680297,75.4173294 47.4943039,75.4660886 47.5204115,75.5149274 C47.5590076,75.5871228 47.5975892,75.6601614 47.6357994,75.7333739 C47.6581083,75.7761194 47.6802371,75.8188203 47.7022397,75.8615795 C47.7422123,75.9392621 47.7817083,76.0170175 47.8207881,76.0949614 C47.8404492,76.1341731 47.8602307,76.1738887 47.8799043,76.2136526 C47.9185337,76.291732 47.9566123,76.3697182 47.9942767,76.4478858 C48.0230066,76.5075064 48.0518042,76.5678862 48.0803551,76.6283723 C48.0918375,76.6526982 48.1032722,76.6770246 48.1146671,76.701368 L48.0803551,76.6283723 C48.1349982,76.7441354 48.1887377,76.8602873 48.2415706,76.9768164 C48.3288101,77.1692173 48.4138788,77.3633576 48.4964434,77.5584805 L48.5059147,77.5808939 C48.7222148,78.0934576 48.9212454,78.6127826 49.1027487,79.1379066 C49.1148196,79.1728297 49.1268307,79.2078307 49.138764,79.2428571 C49.1668292,79.3252321 49.194502,79.4078634 49.221742,79.490632 C49.2342621,79.5286744 49.246684,79.5667246 49.2590144,79.6048034 C49.2841022,79.682278 49.3088462,79.7599815 49.3332099,79.8378009 C49.3943345,80.0330305 49.4531289,80.2292088 49.5095119,80.4260695 C49.5232722,80.4741093 49.5370473,80.5227553 49.5506751,80.5714421 C49.6225182,80.8281155 49.6902296,81.0857587 49.7538268,81.3444303 C49.8115102,81.5790439 49.8658314,81.8146068 49.916744,82.050937 C49.9285999,82.1059639 49.9403985,82.1616445 49.9520079,82.2173666 C49.9976078,82.4362552 50.0402016,82.6553051 50.0798718,82.8749301 C50.1115304,83.0501912 50.1413638,83.2260486 50.169322,83.4022414 L50.178964,83.4634948 C50.3750104,84.7190409 50.4758714,85.99142 50.4784675,87.2691391 C50.4785916,87.3295994 50.478493,87.3905956 50.4781701,87.4516027 C50.4778887,87.5046241 50.4774426,87.5572531 50.4768295,87.6098895 L50.4781701,87.4516027 C50.477528,87.5729501 50.4759989,87.6943408 50.4735801,87.8157648 C50.4716408,87.9131164 50.4691309,88.0104479 50.4660483,88.1077957 C50.4640873,88.1697015 50.4619045,88.2313673 50.4594915,88.2930383 C50.4565252,88.3688676 50.4532014,88.4449016 50.4495274,88.5209411 C50.4471505,88.570138 50.4446216,88.6194355 50.4419453,88.6687348 C50.4302847,88.8834872 50.41585,89.0979821 50.3986112,89.3124551 C50.392244,89.3916528 50.3855336,89.4704136 50.3784442,89.5491686 C50.3290585,90.0979335 50.2611859,90.6469962 50.1746342,91.1948771 C50.1681822,91.2357172 50.161655,91.2763751 50.1550248,91.3170261 C50.1148417,91.5634049 50.0708537,91.8096405 50.0230567,92.0555402 C50.0144586,92.0997718 50.0057891,92.1437337 49.9969976,92.1876843 C49.9779276,92.2830228 49.9582565,92.3784373 49.9380088,92.473794 C49.9285713,92.5182417 49.9189635,92.5628834 49.9092291,92.6075119 C49.8938568,92.6779825 49.8782641,92.7480013 49.862359,92.8179857 C49.844493,92.8966042 49.8261363,92.9755859 49.8073805,93.054521 C49.751979,93.2876703 49.6931703,93.5201362 49.6308695,93.7521254 C49.6047478,93.8494022 49.5778785,93.9470694 49.5503878,94.0446466 C49.5358816,94.0961335 49.5212721,94.1473542 49.506491,94.1985492 L79.5541402,111.547062 C83.3398559,109.771166 87.5662034,108.778792 92.0243322,108.778792 L92.0243322,108.778792 L125.815047,108.778338 L125.814975,49.5608782 C125.691893,49.5266283 125.569194,49.4914582 125.446885,49.4553758 C125.410113,49.4445278 125.373146,49.4335284 125.336215,49.4224457 C125.248561,49.3961411 125.161253,49.3694117 125.074149,49.3422175 C125.030132,49.3284758 124.98583,49.3145082 124.941582,49.3004205 C124.861826,49.2750265 124.782524,49.2493347 124.703397,49.2232576 C124.657493,49.2081298 124.611471,49.1928129 124.565509,49.1773659 C124.349311,49.104705 124.134467,49.0291735 123.920992,48.9508069 C123.884763,48.9375085 123.848049,48.9239328 123.811376,48.9102732 C123.740019,48.8836941 123.669146,48.8569239 123.598427,48.8298409 C123.408155,48.7569719 123.219057,48.6818618 123.031111,48.6045224 C122.748324,48.4881505 122.468495,48.3668908 122.191381,48.2407086 C122.040332,48.1719261 121.890498,48.1018771 121.741484,48.0303915 C121.690862,48.0061076 121.640061,47.9815242 121.589356,47.956774 C121.278869,47.8052156 120.972135,47.6474749 120.669175,47.4836464 C120.591141,47.441448 120.513471,47.3989089 120.436053,47.3559698 C120.401112,47.3365906 120.365818,47.3169033 120.330576,47.297133 C120.265497,47.2606221 120.200896,47.2239985 120.136475,47.1870959 C120.069696,47.1488411 120.003328,47.1104135 119.937154,47.0716896 C119.890866,47.0446048 119.844146,47.0170613 119.797524,46.9893702 C119.718226,46.94227 119.63957,46.894961 119.561198,46.847232 C119.536966,46.8324742 119.512958,46.8177974 119.488978,46.8030811 C119.396181,46.7461368 119.303469,46.6884024 119.211166,46.630079 C119.178509,46.6094434 119.146222,46.5889374 119.113985,46.5683594 C119.055328,46.5309171 118.996602,46.4930829 118.938046,46.4550096 C118.87958,46.4169955 118.821102,46.3786232 118.762796,46.3400124 C118.708825,46.3042705 118.655475,46.2686439 118.602271,46.2328176 C118.548148,46.1963734 118.493903,46.1595358 118.439811,46.1224906 C118.365253,46.0714288 118.290978,46.0199667 118.216997,45.9681133 C118.009325,45.8225551 117.804019,45.6739462 117.601098,45.5223207 C117.449435,45.4089982 117.298847,45.2937896 117.149624,45.1769181 C117.099203,45.1374278 117.049084,45.0978639 116.999121,45.0581123 C116.630703,44.7649902 116.270772,44.4616667 115.919751,44.1485655 C115.878247,44.1115478 115.836223,44.073811 115.794329,44.0359339 C115.715589,43.9647395 115.637894,43.893596 115.560654,43.8219693 C115.534598,43.7978081 115.508205,43.7732287 115.481866,43.7485929 C115.448099,43.7170095 115.41444,43.6853521 115.380869,43.6536024 C115.313796,43.5901697 115.24694,43.5262373 115.18044,43.4619383 C115.146178,43.428809 115.11245,43.3960117 115.078814,43.3631201 C115.037835,43.3230479 114.996643,43.2824894 114.955592,43.2417892 L114.8793,43.1658234 C114.857475,43.1439984 114.83569,43.1221331 114.813946,43.1002277 C114.666689,42.9518845 114.52107,42.8014735 114.377346,42.6492541 L114.345977,42.6159695 C114.228714,42.4913208 114.112719,42.3654654 113.998013,42.238424 C113.902465,42.1326006 113.807833,42.0259792 113.714107,41.9185471 C113.577413,41.7618636 113.442665,41.6034796 113.30988,41.4434087 C113.274006,41.4001627 113.23832,41.3568471 113.202776,41.3134094 C113.150834,41.2499312 113.09915,41.186131 113.047776,41.1220719 C112.921428,40.9645249 112.797154,40.8056737 112.67478,40.6452948 C112.636922,40.5956806 112.599007,40.5456034 112.561278,40.4953792 C112.528873,40.4522429 112.496544,40.4089164 112.464353,40.3654817 C112.412408,40.2953918 112.361076,40.2253689 112.310101,40.1550697 C112.282608,40.1171554 112.255196,40.0791273 112.227889,40.0410191 C112.175549,39.9679796 112.123419,39.8943959 112.07168,39.8205188 C112.046293,39.7842693 112.021217,39.7482621 111.996234,39.7121858 C111.950611,39.6463067 111.905124,39.5799428 111.859951,39.5133489 C111.826599,39.4641817 111.79336,39.4148022 111.760293,39.3652978 C111.511127,38.9922589 111.271964,38.6124871 111.042939,38.2260002 L110.912041,38.0024656 Z M233.563319,77.0101271 C229.076671,79.6004946 226.919362,84.6760042 227.826267,89.4940649 C227.832269,89.5291478 227.839041,89.5641296 227.845973,89.5990904 L227.826267,89.4940649 C227.862847,89.6884034 227.904413,89.8823231 227.951012,90.075644 C228.152654,90.9114961 228.447355,91.732177 228.835963,92.5233987 C228.854145,92.5605499 228.872886,92.5982011 228.891846,92.6357936 L228.835963,92.5233987 C228.877361,92.6076871 228.919825,92.6916411 228.963356,92.7752432 L228.891846,92.6357936 C228.945356,92.7418909 229.000606,92.8475209 229.057607,92.9526491 L229.215797,93.2353028 C229.377648,93.515638 229.549582,93.7874464 229.730968,94.050423 C229.758045,94.0898226 229.785331,94.1288877 229.812818,94.1677437 L229.730968,94.050423 C229.789934,94.1359118 229.849898,94.2204672 229.910839,94.3040789 L229.812818,94.1677437 C229.876476,94.2577327 229.941212,94.3466002 230.006996,94.4343387 L229.910839,94.3040789 C229.981358,94.400831 230.053186,94.4963193 230.126288,94.5905277 L230.006996,94.4343387 C230.063846,94.5101599 230.121478,94.5851379 230.179876,94.6592679 L230.126288,94.5905277 C230.194776,94.6787886 230.264382,94.765926 230.335081,94.8519266 L230.179876,94.6592679 C230.24558,94.7426723 230.312253,94.8250033 230.379868,94.906254 L230.335081,94.8519266 C230.459567,95.0033578 230.587438,95.1512643 230.718542,95.2955731 C234.395184,99.3407474 240.513609,100.42764 245.440972,97.5828255 C251.121966,94.3029022 253.068418,87.0386436 249.788495,81.3576498 C246.508572,75.6766561 239.244313,73.7302039 233.563319,77.0101271 Z M15.2449338,81.3576498 C11.9650106,87.0386436 13.9114628,94.3029022 19.5924565,97.5828255 C24.0951967,100.182484 29.5925604,99.4988783 33.3123398,96.2748201 C33.3900419,96.2081519 33.4662577,96.1402571 33.5416504,96.0713205 L33.7648109,95.8615637 C33.8877766,95.7432459 34.0084947,95.6219472 34.1268516,95.4976979 C34.1556876,95.4674683 34.1840881,95.4373182 34.2123439,95.4070044 L34.1268516,95.4976979 C34.1896125,95.4318124 34.2517094,95.3650973 34.3131256,95.2975571 L34.2123439,95.4070044 C34.2806064,95.3337701 34.3480245,95.2595798 34.4145775,95.1844433 L34.3131256,95.2975571 C34.3843402,95.2192413 34.4546394,95.1398161 34.5239969,95.0592885 L34.4145775,95.1844433 C34.4854608,95.1044182 34.555363,95.0233199 34.6242592,94.9411604 L34.5239969,95.0592885 C34.5928767,94.9793154 34.6608277,94.8982551 34.7278239,94.8161146 L34.6242592,94.9411604 C34.836904,94.6875791 35.0399664,94.4238882 35.2327196,94.1504398 C35.2550854,94.1188615 35.2774554,94.0867891 35.2996888,94.0545763 L35.2327196,94.1504398 C35.4399018,93.8565216 35.6351735,93.5513303 35.8176321,93.2353028 C35.8721188,93.140929 35.9251973,93.0460489 35.9768696,92.9506891 C35.9965181,92.9144617 36.0159269,92.8782072 36.0351286,92.8418947 L35.9768696,92.9506891 C36.0342483,92.844798 36.0898931,92.7383154 36.1438064,92.6312777 L36.0351286,92.8418947 C36.0884879,92.7409863 36.1402486,92.6396298 36.1904187,92.5378552 L36.1438064,92.6312777 C36.1888057,92.5419379 36.2325987,92.4522113 36.2751872,92.3621193 L36.1904187,92.5378552 C36.2429686,92.4312527 36.2937735,92.3241916 36.3428425,92.2167064 L36.2751872,92.3621193 C36.378987,92.1425403 36.475631,91.9207902 36.5651417,91.6971759 C36.5781653,91.6649708 36.5908145,91.6329648 36.6033152,91.6009277 L36.5651417,91.6971759 C36.7383807,91.2643931 36.8848999,90.8246277 37.0048617,90.3801055 C37.0195577,90.3250235 37.0338765,90.2703066 37.0477891,90.2155381 L37.0048617,90.3801055 C37.0320697,90.2792855 37.0579115,90.1782208 37.0823891,90.0769375 L37.0477891,90.2155381 C37.0725995,90.1178689 37.0961181,90.0200354 37.1183512,89.9220607 L37.0823891,90.0769375 C37.1100254,89.9625841 37.1359226,89.847952 37.1600835,89.7330784 L37.1183512,89.9220607 C37.142208,89.8169308 37.1645847,89.7116385 37.185489,89.6062125 L37.1600835,89.7330784 C37.1794682,89.6409135 37.1977352,89.5485931 37.2148859,89.4561366 L37.185489,89.6062125 C38.147417,84.7549477 35.9915835,79.6206014 31.4701094,77.0101271 C25.7891157,73.7302039 18.5248571,75.6766561 15.2449338,81.3576498 Z M132.516714,13.6507558 C125.956868,13.6507558 120.639062,18.9685621 120.639062,25.5284087 C120.639062,30.5503611 123.755728,34.8443771 128.160346,36.5817417 C128.192562,36.5954107 128.225021,36.6080208 128.257542,36.6204901 L128.160346,36.5817417 C128.24158,36.6137836 128.323252,36.6449559 128.40535,36.6752472 L128.257542,36.6204901 C128.353715,36.6573646 128.450439,36.6930079 128.547692,36.7274059 L128.40535,36.6752472 C128.497106,36.7091015 128.589394,36.7418553 128.682199,36.7734924 L128.547692,36.7274059 C128.645078,36.7618507 128.742995,36.7950468 128.841421,36.8269796 L128.682199,36.7734924 C128.78486,36.8084894 128.888153,36.8421201 128.992057,36.8743628 L128.841421,36.8269796 C128.943181,36.8599937 129.045486,36.8916576 129.148312,36.9219554 L128.992057,36.8743628 C129.082081,36.9022982 129.172563,36.9291917 129.26349,36.9550292 L129.148312,36.9219554 C129.246869,36.9509954 129.345906,36.9787803 129.445401,37.0052961 L129.26349,36.9550292 C129.370754,36.9855091 129.478637,37.0145194 129.587115,37.0420369 L129.445401,37.0052961 C129.68671,37.0696058 129.930715,37.1264505 130.177123,37.17563 C130.229398,37.186143 130.281332,37.1961538 130.333385,37.2058253 L130.177123,37.17563 C130.27096,37.1943587 130.365146,37.2119757 130.459664,37.22847 L130.333385,37.2058253 C130.440104,37.2256534 130.547324,37.2440547 130.655025,37.2610085 L130.459664,37.22847 C130.573442,37.2483255 130.687701,37.2665541 130.802414,37.2831366 L130.655025,37.2610085 C130.730508,37.2728907 130.806226,37.2840619 130.882174,37.2945151 L130.802414,37.2831366 C130.920261,37.3001722 131.038586,37.3154705 131.157358,37.3290106 L130.882174,37.2945151 C130.986522,37.3088773 131.091302,37.321884 131.196497,37.333517 L131.157358,37.3290106 C131.257087,37.3403798 131.357131,37.3505093 131.457473,37.3593869 L131.196497,37.333517 C131.30971,37.3460367 131.423403,37.3569653 131.537553,37.3662798 L131.457473,37.3593869 C131.569241,37.3692755 131.681379,37.3776107 131.793859,37.3843755 L131.537553,37.3662798 C131.645859,37.3751174 131.754576,37.3825021 131.863684,37.3884142 L131.793859,37.3843755 C131.899747,37.3907436 132.005938,37.3957201 132.112413,37.3992905 L131.863684,37.3884142 C132.079874,37.4001285 132.297601,37.4060616 132.516714,37.4060616 L132.839642,37.4017567 C132.866716,37.401034 132.893768,37.4002207 132.920796,37.3993172 L132.840008,37.401734 C132.950138,37.398783 133.059971,37.394328 133.169484,37.3883847 L132.920796,37.3993172 C133.027514,37.3957496 133.133874,37.3907743 133.23986,37.3844092 L133.169484,37.3883847 C133.278591,37.3824634 133.387381,37.3750648 133.49583,37.3662045 L133.23986,37.3844092 C133.352316,37.3776554 133.464351,37.369337 133.575942,37.3594754 L133.49583,37.3662045 C133.609961,37.35688 133.723715,37.3459365 133.837066,37.3333922 L133.575942,37.3594754 C133.6763,37.3506065 133.7763,37.3404895 133.875925,37.3291399 L133.837066,37.3333922 C133.94376,37.3215846 134.050096,37.3083586 134.156053,37.2937294 L133.875925,37.3291399 C133.991673,37.3159536 134.106915,37.3011036 134.221628,37.2846145 L134.156053,37.2937294 C134.233883,37.2829837 134.311508,37.2714809 134.388919,37.2592269 L134.221628,37.2846145 C134.339916,37.2676113 134.457642,37.2488652 134.574777,37.228403 L134.388919,37.2592269 C134.483163,37.2443083 134.577091,37.2282764 134.670686,37.2111419 L134.574777,37.228403 C134.67153,37.2115013 134.767881,37.1934287 134.863814,37.1742003 L134.670686,37.2111419 C134.935139,37.1627285 135.196936,37.1055132 135.455717,37.0397399 C135.493592,37.0300077 135.531728,37.0200976 135.569789,37.0100033 L135.455717,37.0397399 C135.56196,37.0127366 135.667695,36.9842909 135.772897,36.9544195 L135.569789,37.0100033 C135.667953,36.9839684 135.765619,36.9567079 135.862768,36.9282394 L135.772897,36.9544195 C135.867709,36.9274982 135.962088,36.8994189 136.056016,36.8701941 L135.862768,36.9282394 C135.97084,36.8965699 136.078274,36.8634054 136.185045,36.8287697 L136.056016,36.8701941 C136.15478,36.8394645 136.253046,36.8074682 136.350792,36.7742197 L136.185045,36.8287697 C136.28599,36.796024 136.386342,36.7619633 136.486082,36.7266078 L136.350792,36.7742197 C136.443636,36.7426386 136.53601,36.7099276 136.627898,36.6760992 L136.486082,36.7266078 C136.584591,36.6916885 136.682503,36.6555062 136.779798,36.6180804 L136.627898,36.6760992 C136.706892,36.6470173 136.785527,36.6171096 136.863789,36.5863838 L136.779798,36.6180804 C141.233631,34.904845 144.394367,30.5857416 144.394367,25.5284087 C144.394367,18.9685621 139.076561,13.6507558 132.516714,13.6507558 Z" id="Combined-Shape"></path>
                        </g>
                    </g>
                    <path d="M729.776462,64.9798165 C780.528093,64.9798165 816.946906,102.756476 816.946906,149.450064 L816.946906,149.91899 C816.946906,196.612578 780.058352,234.858163 729.306721,234.858163 C678.55509,234.858163 642.136277,197.081504 642.136277,150.388731 L642.136277,149.91899 C642.136277,103.226217 679.024831,64.9798165 729.776462,64.9798165 Z M408.026519,65.527848 C431.938471,65.527848 452.333887,73.0290291 468.978712,86.3913744 L450.224129,113.584175 C435.689061,103.50431 421.388864,97.4090909 407.557593,97.4090909 C393.726322,97.4090909 386.459196,103.738365 386.459196,111.708472 L386.459196,112.177398 C386.459196,122.961059 393.491452,126.476779 421.85779,133.743905 C455.147441,142.417808 473.902025,154.373376 473.902025,182.972139 L473.902025,183.441065 C473.902025,216.026104 449.052222,234.310131 413.652813,234.310131 C388.80301,234.310131 363.719151,225.637043 344.026716,208.055182 L365.359984,182.503213 C380.129106,194.693652 395.602025,202.429704 414.355793,202.429704 C429.124916,202.429704 438.03369,196.56854 438.03369,186.9576 L438.03369,186.488675 C438.03369,177.346661 432.407396,172.658219 404.978909,165.625148 C371.924129,157.186116 350.590861,148.044102 350.590861,115.459063 L350.590861,114.990137 C350.590861,85.2194677 374.502813,65.527848 408.026519,65.527848 Z M1119.44072,67.7199739 L1119.44072,175.182263 C1119.44072,215.070311 1096.00422,234.310131 1061.31839,234.310131 C1035.77295,234.310131 1018.89896,223.047758 1007.64963,209.673995 L1030.38315,184.333247 C1039.75759,194.656953 1048.89716,200.757881 1060.38135,200.757881 C1073.97449,200.757881 1082.41108,192.545564 1082.41108,173.539799 L1082.41108,104.434822 L1028.4732,104.435638 L1028.4732,67.7199739 L1119.44072,67.7199739 Z M627.340242,67.7199739 L627.340242,101.069158 L577.431046,101.069158 L577.431046,232.118821 L541.346598,232.118821 L541.346598,101.069158 L491.437402,101.069158 L491.437402,67.7199739 L627.340242,67.7199739 Z M922.705568,67.7199739 C961.41437,67.7199739 984.638835,88.1520886 984.638835,121.971014 L984.638835,122.440756 C984.638835,148.979507 970.328852,165.654507 949.449831,173.404423 L989.56541,232.118821 L947.338442,232.118821 L912.148622,179.511059 L883.762711,179.511059 L883.762711,232.118821 L847.635039,232.118821 L847.635039,67.7199739 L922.705568,67.7199739 Z M729.306721,98.4072911 C700.161558,98.4072911 679.948003,121.353663 679.948003,149.450879 L679.948003,149.91899 C679.948003,178.016205 700.631299,201.430688 729.776462,201.430688 C758.921625,201.430688 779.13518,178.484316 779.13518,150.3871 L779.13518,149.91899 C779.13518,121.821774 758.451884,98.4072911 729.306721,98.4072911 Z M919.604133,100.599417 L883.802671,100.599417 L883.802671,147.726864 L920.306299,147.726864 C937.856355,147.726864 947.918278,138.348348 947.918278,124.515446 L947.918278,124.046521 C947.918278,108.571155 937.15419,100.599417 919.604133,100.599417 Z" id="Clip-45" fill="#091C45"></path>
                </g>
            </g>
            <path d="M1358.04492,233.204226 C1399.50434,233.204226 1428.95814,200.308815 1428.95814,149.004779 C1428.95814,97.7007439 1399.50434,64.8053328 1358.04492,64.8053328 C1316.66553,64.8053328 1287.21173,97.7807814 1287.21173,149.004779 C1287.21173,200.228777 1316.58549,233.204226 1358.04492,233.204226 Z M1358.04492,219.117626 C1325.62973,219.117626 1301.69852,192.945365 1301.69852,149.004779 C1301.69852,104.824081 1325.86984,78.8919322 1358.04492,78.8919322 C1390.38007,78.8919322 1414.39151,104.904119 1414.39151,149.004779 C1414.47135,193.10544 1390.38007,219.117626 1358.04492,219.117626 Z M1514.61879,233.764488 C1550.15544,233.764488 1571.44541,213.675077 1571.44541,187.422778 C1571.44541,160.210029 1547.75431,149.324929 1526.94457,143.482192 L1509.65647,138.519867 C1493.729,134.037767 1477.00117,125.95398 1477.00117,108.665881 C1477.00117,91.0576317 1492.76855,78.1715948 1515.65928,78.1715948 C1537.34944,78.1715948 1552.87671,89.7770318 1554.71758,108.025581 L1569.20436,108.025581 C1568.08384,83.1339196 1546.55375,64.7252953 1516.05947,64.7252953 C1485.80529,64.7252953 1462.51438,82.8938071 1462.51438,109.306181 C1462.51438,130.356043 1477.40135,143.562229 1503.09339,151.165792 L1522.70258,156.928491 C1543.0321,162.851266 1556.95863,170.454828 1556.95863,187.182665 C1556.95863,206.871889 1539.11026,220.078076 1514.61879,220.078076 C1492.52844,220.078076 1475.24034,209.433089 1473.63959,189.983978 L1458.27239,189.983978 C1460.03322,215.916126 1481.16312,233.764488 1514.61879,233.764488 Z M1623.0901,230.963176 L1623.0901,168.293816 L1661.26799,168.293816 C1695.92422,168.293816 1713.85262,146.283504 1713.85262,117.630081 C1713.85262,88.9766568 1695.92422,67.0463827 1661.02787,67.0463827 L1608.12309,67.0463827 L1608.12309,230.963176 L1623.0901,230.963176 Z M1660.8678,154.847517 L1623.0901,154.847517 L1623.0901,80.4926822 L1660.62769,80.4926822 C1686.55984,80.4926822 1699.12572,96.099994 1699.12572,117.630081 C1699.12572,139.08013 1686.55984,154.847517 1660.8678,154.847517 Z" id="OSP" fill="#606470" fill-rule="nonzero"></path>
        </g>
    </g>
</svg>